HIERARCHY
ROOT Hips
{
	OFFSET 0.00000 0.00000 0.00000
	CHANNELS 6 Xposition Yposition Zposition Yrotation Zrotation Xrotation 
	JOINT Lumbar
	{
		OFFSET 0 0 0
		CHANNELS 3 Zrotation Xrotation Yrotation
		JOINT Neck
		{
			OFFSET 0.00 0.2701 0.00
			CHANNELS 3 Zrotation Xrotation Yrotation
			End Site
			{
				OFFSET 0.00 0.1379 0.00
			}
		}
		JOINT RightShoulder
		{
			OFFSET 0.0119 0.2289 0.1181
			CHANNELS 3 Zrotation Xrotation Yrotation
			JOINT RightElbow
			{
				OFFSET 0.00 -0.1475 0.00
				CHANNELS 2 Zrotation Yrotation
				JOINT RightWrist
				{
					OFFSET 0.00 -0.1605 0.00
					CHANNELS 2 Zrotation Xrotation
					End Site
					{
						OFFSET 0.0040 -0.1068 0.0006
					}
				}
			}
		}
		JOINT LeftShoulder
		{
			OFFSET 0.0119 0.2289 -0.1181
			CHANNELS 3 Zrotation Xrotation Yrotation
			JOINT LeftElbow
			{
				OFFSET 0.00 -0.1475 0.00
				CHANNELS 2 Zrotation Yrotation
				JOINT LeftWrist
				{
					OFFSET 0.00 -0.1605 0.00
					CHANNELS 2 Zrotation Xrotation
					End Site
					{
						OFFSET 0.0040 -0.1068 -0.0006
					}
				}
			}
		}
	}
	JOINT RightHip
	{
		OFFSET 0.0316 -0.0424 0.0458
		CHANNELS 3 Zrotation Xrotation Yrotation
		JOINT RightKnee
		{
			OFFSET 0.00 -0.2438 0.00
			CHANNELS 1 Zrotation
			JOINT RightAnkle
			{
				OFFSET 0.00 -0.2449 0.00
				CHANNELS 3 Zrotation Xrotation Yrotation
				End Site
				{
					OFFSET 0.1237 -0.0542 0.0051
				}
			}
		}
	}
	JOINT LeftHip
	{
		OFFSET 0.0316 -0.0424 -0.0458
		CHANNELS 3 Zrotation Xrotation Yrotation
		JOINT LeftKnee
		{
			OFFSET 0.00 -0.2438 0.00
			CHANNELS 1 Zrotation
			JOINT LeftAnkle
			{
				OFFSET 0.00 -0.2449 0.00
				CHANNELS 3 Zrotation Xrotation Yrotation
				End Site
				{
					OFFSET 0.1237 -0.0542 -0.0051
				}
			}
		}
	}
}
MOTION
Frames: 22
Frame Time: 0.02
0.00422 0.00028 -0.00292 145.88719 -30.55644 -2.88945 45.17736 2.15657 -9.87926 -13.18369 -6.80879 -1.26667 -24.08204 -9.52243 -9.94826 36.35228 87.19512 4.79538 0.23695 -31.84607 15.61544 -6.04015 43.33198 -73.10749 6.36344 3.54082 27.44342 -1.97051 -12.39296 -20.06356 -7.51365 -2.47052 -3.47729 34.09376 8.97289 10.88382 -26.36419 -7.96579 3.39758 3.96025
0.00275 6e-05 -0.00215 145.42663 -30.81556 -2.91556 45.43813 2.30094 -9.52974 -13.29885 -6.67244 -1.26864 -24.09151 -9.7231 -9.92863 36.18435 87.34487 4.89865 0.23014 -31.97399 15.24881 -5.44853 43.11634 -77.3698 7.48586 2.76404 27.76316 -2.14788 -12.10766 -20.12182 -7.50662 -2.45259 -3.46862 34.27444 8.82264 11.08727 -26.44165 -7.97019 3.41907 3.97098
0.00129 -0.00015 -0.00138 144.96692 -31.07373 -2.94161 45.69779 2.44503 -9.18152 -13.41374 -6.53635 -1.27066 -24.10056 -9.92358 -9.90886 36.017 87.49415 5.00161 0.22336 -32.10159 14.88332 -4.85961 42.90134 -81.61375 8.60343 1.99059 28.08172 -2.32519 -11.82371 -20.17988 -7.49963 -2.4346 -3.45992 34.45411 8.67258 11.29064 -26.51879 -7.97452 3.4405 3.98167
-0.00017 -0.00037 -0.0006 144.50768 -31.33201 -2.96763 45.95771 2.58898 -8.83308 -13.52855 -6.4004 -1.27263 -24.10996 -10.1237 -9.88927 35.84961 87.64345 5.10455 0.21657 -32.22915 14.5178 -4.26995 42.68634 -85.86193 9.72214 1.21639 28.40039 -2.50209 -11.53937 -20.23788 -7.49263 -2.4167 -3.45127 34.63415 8.52275 11.49358 -26.59599 -7.97889 3.46192 3.99237
-0.00164 -0.00058 0.00017 144.04782 -31.59135 -2.99371 46.21885 2.73312 -8.48334 -13.6436 -6.26427 -1.27455 -24.11987 -10.32384 -9.86988 35.68162 87.79321 5.2078 0.20975 -32.35697 14.15118 -3.67728 42.47074 -90.13085 10.84629 0.4384 28.72044 -2.6789 -11.25348 -20.2963 -7.48557 -2.39889 -3.44266 34.81542 8.37282 11.69635 -26.67357 -7.98334 3.48342 4.0031
-0.0031 -0.00079 0.00095 143.58846 -31.84706 -3.0197 46.4754 2.8771 -8.1384 -13.75817 -6.12826 -1.27675 -24.12706 -10.52501 -9.8493 35.51562 87.94147 5.31016 0.20306 -32.48407 13.78812 -3.09627 42.25704 -94.32239 11.95004 -0.32551 29.03595 -2.85722 -10.97363 -20.35372 -7.47873 -2.38052 -3.43379 34.99174 8.2225 11.90091 -26.74979 -7.98742 3.50469 4.01371
-0.00456 -0.00101 0.00171 143.12855 -32.10968 -3.04582 46.74087 3.02129 -7.78395 -13.87355 -5.99215 -1.27839 -24.13987 -10.72392 -9.83121 35.34582 88.09259 5.41417 0.19612 -32.61256 13.41818 -2.49243 42.03966 -98.66352 13.0933 -1.11661 29.35983 -3.03227 -10.682 -20.41252 -7.47145 -2.36331 -3.42544 35.17768 8.07316 12.1018 -26.82862 -7.99226 3.52638 4.02456
-0.00603 -0.00122 0.00249 142.66926 -32.36614 -3.07185 46.99816 3.16517 -7.4387 -13.9882 -5.85615 -1.28053 -24.14724 -10.92484 -9.81068 35.17947 88.24106 5.51668 0.18938 -32.73961 13.05479 -1.90967 41.82584 -102.86942 14.20071 -1.88317 29.67679 -3.21043 -10.4011 -20.4711 -7.4646 -2.34504 -3.41662 35.35502 7.92289 12.30579 -26.90512 -7.99637 3.54769 4.03519
-0.0075 -0.00143 0.00328 142.21 -32.61431 -3.09768 47.24534 3.30925 -7.10287 -14.10196 -5.72011 -1.28335 -24.14892 -11.12868 -9.78768 35.01752 88.38642 5.61731 0.18301 -32.86563 12.69845 -1.35246 41.61564 -106.90006 15.26224 -2.61777 29.98222 -3.39217 -10.13379 -20.52525 -7.45816 -2.32541 -3.40718 35.52074 7.77147 12.51486 -26.97845 -7.99966 3.56854 4.04553
-0.00892 -0.00165 0.00399 141.74835 -32.9079 -3.12438 47.55037 3.4539 -6.70737 -14.22086 -5.58376 -1.28248 -24.18621 -11.31713 -9.78045 34.83078 88.55008 5.72863 0.17488 -32.99978 12.29867 -0.64762 41.38238 -111.90916 16.58156 -3.53036 30.34473 -3.55263 -9.78975 -20.59237 -7.44903 -2.31337 -3.40119 35.75001 7.62659 12.69862 -27.06906 -8.00789 3.59204 4.0575
-0.01046 -0.00186 0.00486 141.29325 -33.10708 -3.14945 47.73358 3.59623 -6.44126 -14.3289 -5.44846 -1.28925 -24.14658 -11.53707 -9.73895 34.69603 88.67484 5.81748 0.17022 -33.11533 11.99238 -0.25461 41.19922 -114.87329 17.36098 -4.07121 30.59274 -3.75838 -9.60661 -20.64015 -7.4458 -2.2855 -3.388 35.84737 7.468 12.93322 -27.12385 -8.00556 3.60996 4.06603
-0.01239 -0.00205 0.00618 140.844 -33.03286 -3.16845 47.57665 3.74102 -6.50514 -14.4072 -5.31305 -1.31858 -23.90913 -11.8521 -9.6106 34.70793 88.69443 5.84358 0.17736 -33.19086 11.93087 -0.72319 41.14248 -112.00943 16.61146 -3.55041 30.47659 -4.08679 -9.87696 -20.57136 -7.45729 -2.21213 -3.35404 35.56103 7.27096 13.32982 -27.074 -7.97518 3.61237 4.06506
-0.01443 -0.00224 0.00766 140.40386 -32.86633 -3.18619 47.29818 3.88168 -6.70371 -14.47472 -5.17939 -1.35534 -23.59254 -12.19676 -9.44639 34.77142 88.67484 5.84751 0.18758 -33.24531 11.96601 -1.50389 41.13789 -107.13168 15.3288 -2.66384 30.25593 -4.46108 -10.30623 -20.49689 -7.47505 -2.12323 -3.31302 35.14611 7.06053 13.77326 -26.98922 -7.93405 3.60921 4.06063
-0.01639 -0.00244 0.00905 139.96709 -32.75164 -3.20547 47.07952 4.01865 -6.8569 -14.54695 -5.04672 -1.38764 -23.30282 -12.52273 -9.29403 34.80852 88.6719 5.86207 0.1949 -33.3027 11.96384 -2.13783 41.11689 -103.31747 14.32078 -1.972 30.11418 -4.81532 -10.65552 -20.464 -7.49084 -2.04275 -3.27587 34.80445 6.85652 14.1807 -26.92472 -7.89719 3.60875 4.05782
-0.01847 -0.00262 0.01049 139.49743 -32.59572 -3.2204 46.84251 4.17974 -6.94308 -14.61938 -4.90598 -1.4244 -23.04909 -12.87247 -9.16085 34.85759 88.67304 5.87347 0.20849 -33.38964 11.93147 -2.79288 41.066 -98.87525 13.17417 -1.15982 29.83463 -5.16586 -11.03964 -20.25842 -7.5027 -1.95649 -3.23589 34.4006 6.65021 14.65064 -26.84209 -7.86275 3.60759 4.05484
-0.02034 -0.00283 0.01187 139.09996 -32.50293 -3.24443 46.61339 4.28879 -7.20134 -14.68956 -4.78313 -1.4538 -22.70444 -13.17766 -8.97861 34.89465 88.65729 5.88714 0.20986 -33.4081 11.988 -3.4783 41.08872 -95.261 12.19104 -0.51065 29.82354 -5.53547 -11.38665 -20.42126 -7.52451 -1.87861 -3.20015 34.09499 6.44658 15.00116 -26.78829 -7.8209 3.60651 4.05137
-0.02162 -0.00315 0.01313 138.88691 -32.61495 -3.29126 46.44954 4.26266 -7.89561 -14.75023 -4.70383 -1.45951 -22.10644 -13.36975 -8.67596 34.88029 88.59676 5.90441 0.17565 -33.25843 12.23956 -4.16514 41.31057 -94.45718 11.78161 -0.41069 30.52494 -5.94183 -11.61158 -21.51086 -7.56985 -1.82771 -3.17774 34.09939 6.2451 15.01284 -26.82826 -7.75976 3.60745 4.04745
-0.02268 -0.0035 0.01433 138.74879 -32.79225 -3.34796 46.29538 4.18313 -8.75897 -14.81022 -4.64357 -1.45781 -21.42522 -13.51259 -8.32461 34.85345 88.52199 5.92616 0.12925 -33.03716 12.58205 -4.87156 41.60307 -94.55085 11.55682 -0.48571 31.50894 -6.36632 -11.79066 -22.98424 -7.62538 -1.78586 -3.15989 34.20559 6.04871 14.9021 -26.89735 -7.69185 3.60855 4.04313
-0.02382 -0.00383 0.01553 138.58439 -32.93456 -3.40163 46.12774 4.12283 -9.54964 -14.87434 -4.57802 -1.46053 -20.79447 -13.66689 -7.99071 34.83551 88.45887 5.9513 0.08909 -32.83891 12.90071 -5.57449 41.85751 -94.21388 11.25294 -0.47451 32.40095 -6.78595 -11.97719 -24.34782 -7.67791 -1.73976 -3.13998 34.26069 5.85521 14.84607 -26.94954 -7.62794 3.6093 4.03897
-0.02504 -0.00419 0.01684 138.38652 -33.09618 -3.44834 45.99392 4.08273 -10.32973 -14.9216 -4.49795 -1.45916 -20.10152 -13.869 -7.67292 34.80421 88.37271 5.95317 0.04602 -32.68203 13.14965 -6.2706 42.13883 -93.90308 10.90991 -0.47894 33.14101 -7.19422 -12.2231 -25.45639 -7.72402 -1.6934 -3.11967 34.3325 5.63799 14.7963 -27.01631 -7.55959 3.61109 4.03482
-0.02605 -0.00448 0.01789 138.27725 -33.23423 -3.51287 45.79386 3.9891 -11.16744 -15.0044 -4.45312 -1.46433 -19.52694 -13.95863 -7.31349 34.79902 88.33144 6.00436 0.00616 -32.41984 13.56319 -6.97507 42.38036 -93.77666 10.69945 -0.49699 34.25908 -7.62822 -12.33571 -27.16475 -7.78552 -1.65029 -3.10151 34.39437 5.47314 14.70291 -27.0597 -7.49921 3.61075 4.03057
-0.0265 -0.00461 0.01832 138.38439 -33.29223 -3.6155 45.40651 3.75047 -12.145 -15.18193 -4.49636 -1.49036 -19.23612 -13.75646 -6.825 34.8517 88.41952 6.19497 -0.02272 -31.90498 14.41707 -7.75202 42.49541 -93.95357 10.81084 -0.51277 36.41191 -8.14242 -12.06014 -30.62697 -7.89014 -1.61105 -3.08688 34.41303 5.43798 14.52652 -27.03495 -7.46084 3.60502 4.02634
